<svg xmlns="http://www.w3.org/2000/svg" viewBox="0 0 512 512" width="512" height="512">
  <!-- Background -->
  <rect width="512" height="512" rx="100" fill="#0D0D0F"/>
  
  <!-- Shield -->
  <path d="M256 48L72 132v152c0 108 72 172 184 204 112-32 184-96 184-204V132L256 48z" 
    fill="#1A1A1E" stroke="#C9B896" stroke-width="8"/>
  
  <!-- Inner shield line -->
  <path d="M256 88L108 156v120c0 84 56 136 148 160 92-24 148-76 148-160V156L256 88z" 
    fill="none" stroke="#C9B896" stroke-width="2" opacity="0.3"/>
  
  <!-- Custom S Monogram Mark -->
  <g transform="translate(136, 148)" fill="#C9B896">
    <!-- Top S curve -->
    <path d="M180 48 C180 20, 148 0, 104 0 L36 0 L36 44 L104 44 C132 44, 148 58, 148 80 C148 102, 132 116, 104 116 L36 116 L36 160 L120 160 C168 160, 208 128, 208 80 C208 58, 196 48, 180 48"/>
    <!-- Bottom S curve -->
    <path d="M48 204 C48 232, 80 252, 120 252 L188 252 L188 208 L120 208 C92 208, 76 194, 76 172 C76 150, 92 136, 120 136 L188 136 L188 92 L104 92 C56 92, 20 124, 20 172 C20 194, 32 204, 48 204"/>
  </g>
  
  <!-- Bottom accent line -->
  <line x1="165" y1="420" x2="347" y2="420" stroke="#C9B896" stroke-width="7" stroke-linecap="round"/>
</svg>