<svg xmlns="http://www.w3.org/2000/svg" viewBox="0 0 192 192" width="192" height="192">
  <!-- Background -->
  <rect width="192" height="192" rx="40" fill="#0D0D0F"/>
  
  <!-- Shield -->
  <path d="M96 20L28 52v56c0 40 28 64 68 76 40-12 68-36 68-76V52L96 20z" 
    fill="#1A1A1E" stroke="#C9B896" stroke-width="3.5"/>
  
  <!-- Inner shield line -->
  <path d="M96 34L42 60v44c0 32 22 52 54 60 32-8 54-28 54-60V60L96 34z" 
    fill="none" stroke="#C9B896" stroke-width="1" opacity="0.3"/>
  
  <!-- Custom S Monogram Mark -->
  <g transform="translate(52, 58)" fill="#C9B896">
    <!-- Top S curve -->
    <path d="M68 18 C68 8, 56 0, 40 0 L14 0 L14 16 L40 16 C50 16, 56 22, 56 30 C56 38, 50 44, 40 44 L14 44 L14 60 L46 60 C64 60, 78 48, 78 30 C78 22, 74 18, 68 18"/>
    <!-- Bottom S curve -->  
    <path d="M18 78 C18 88, 30 96, 46 96 L72 96 L72 80 L46 80 C36 80, 30 74, 30 66 C30 58, 36 52, 46 52 L72 52 L72 36 L40 36 C22 36, 8 48, 8 66 C8 74, 12 78, 18 78"/>
  </g>
  
  <!-- Bottom accent line -->
  <line x1="62" y1="158" x2="130" y2="158" stroke="#C9B896" stroke-width="3" stroke-linecap="round"/>
</svg>