<svg viewBox="0 0 512 512" fill="none" xmlns="http://www.w3.org/2000/svg">
  <rect width="512" height="512" rx="100" fill="#0D0D0F" />
  <path d="M256 72L100 142v134c0 90 60 150 156 182 96-32 156-92 156-182V142L256 72z" fill="#1A1A1E" stroke="#C9B896" stroke-width="10" />
  <!-- Calligraphic S — base curve -->
  <path d="M315 158 C310 122, 284 106, 252 112 C216 118, 182 154, 188 192 C194 218, 230 234, 256 250 C294 272, 316 316, 290 342 C264 368, 220 362, 204 326"
    stroke="#C9B896" stroke-width="26" stroke-linecap="round" fill="none" />
  <!-- Thick overlay — upper-left bowl -->
  <path d="M252 112 C216 118, 182 154, 188 192"
    stroke="#C9B896" stroke-width="44" stroke-linecap="round" fill="none" />
  <!-- Thick overlay — lower-right bowl -->
  <path d="M256 250 C294 272, 316 316, 290 342"
    stroke="#C9B896" stroke-width="44" stroke-linecap="round" fill="none" />
</svg>
