<svg xmlns="http://www.w3.org/2000/svg" viewBox="0 0 512 512" width="512" height="512">
  <!-- Background -->
  <rect width="512" height="512" rx="100" fill="#0D0D0F"/>
  
  <!-- Shield -->
  <path d="M256 48L72 132v152c0 108 72 172 184 204 112-32 184-96 184-204V132L256 48z" 
    fill="#1A1A1E" stroke="#C9B896" stroke-width="6"/>
  
  <!-- Inner shield line -->
  <path d="M256 80L104 148v124c0 88 56 140 152 168 96-28 152-80 152-168V148L256 80z" 
    fill="none" stroke="#C9B896" stroke-width="2" opacity="0.3"/>
  
  <!-- Custom Ornamental S -->
  <g transform="translate(160, 130)" fill="none" stroke="#C9B896" stroke-linecap="round">
    <!-- Main S curve -->
    <path d="M130 50 C130 30, 106 10, 76 10 C46 10, 22 30, 22 55 C22 80, 46 95, 76 105 C106 115, 134 130, 134 162 C134 194, 106 218, 76 218 C46 218, 22 195, 22 175" stroke-width="16"/>
    <!-- Top flourish -->
    <path d="M130 50 C145 44, 156 34, 162 18" stroke-width="8"/>
    <circle cx="164" cy="12" r="6" fill="#C9B896"/>
    <!-- Bottom flourish -->
    <path d="M22 175 C8 180, 2 195, 2 215" stroke-width="8"/>
    <circle cx="0" cy="220" r="6" fill="#C9B896"/>
    <!-- Top left accent -->
    <path d="M52 14 C38 8, 20 8, 6 14" stroke-width="5"/>
    <!-- Bottom right accent -->
    <path d="M100 214 C118 222, 142 228, 160 222" stroke-width="5"/>
  </g>
  
  <!-- Bottom decorative curve -->
  <path d="M176 420 Q256 448, 336 420" fill="none" stroke="#C9B896" stroke-width="5" stroke-linecap="round"/>
  <circle cx="164" cy="420" r="8" fill="#C9B896" opacity="0.8"/>
  <circle cx="348" cy="420" r="8" fill="#C9B896" opacity="0.8"/>
</svg>